<svg class="icon" style="width: 1em; height: 1em;vertical-align: middle;fill: currentColor;overflow: hidden;" viewBox="0 0 1024 1024" version="1.1" xmlns="http://www.w3.org/2000/svg"><path d="M807.936 790.016l-22.016-32.768 66.048-38.4V324.096l-197.632-115.2 18.944-32.768L890.368 302.08v438.784l-82.432 49.152zM166.4 562.176H128V304.64l389.12-219.136 87.552 49.152-19.456 35.84-68.608-40.96-350.208 197.12v235.52z m342.528 397.824L128 743.424v-107.008h38.4v84.992l342.528 194.56 222.208-125.952 19.456 32.768-241.664 137.216z m-24.576-619.52L399.36 290.816v-30.208L512 194.56l109.568 66.048v30.208l-82.432 49.152-2.56 30.208-24.576-16.384-27.648 16.384v-29.696z m173.056 197.12V439.296l-84.992-49.152v-30.208L681.984 296.96l112.64 62.976v129.024l-112.64 62.976-24.576-14.336zM399.36 784.384v-125.952l24.576-16.384 84.992 49.152 87.552-49.152 24.576 13.824v129.024l-112.64 66.048-109.056-66.56z m258.048-49.152v-98.816l-27.648-16.384 27.648-13.824v-30.208l24.576 16.384 84.992-49.152 27.648 13.824V686.08l-112.64 62.976-24.576-13.824zM399.36 587.264V458.24l112.64-62.976 109.568 62.976v129.024l-112.64 62.976L399.36 587.264z m-175.616 98.304l2.56-129.024L250.88 542.72l84.992 49.152 27.648-16.384v30.208l27.648 16.384-27.648 13.824v98.816l-27.648 13.824-112.128-62.976z m0-197.12l2.56-129.024 112.64-62.976 109.568 62.976v30.208L363.52 438.784v95.744l-27.648 16.384-112.128-62.464z" fill="#FF6A00" /></svg>