<svg class="icon" style="width: 1em; height: 1em;vertical-align: middle;fill: currentColor;overflow: hidden;" viewBox="0 0 1024 1024" version="1.1" xmlns="http://www.w3.org/2000/svg"><path d="M512 21.504C241.152 21.504 21.504 241.152 21.504 512s219.648 490.496 490.496 490.496 490.496-219.648 490.496-490.496S782.848 21.504 512 21.504z m0 938.496c-232.448 0-424.448-179.2-445.952-405.504h125.952V512h-128c0-247.296 200.704-448 448-448s448 200.704 448 448h-128v42.496h125.952c-21.504 226.304-213.504 405.504-445.952 405.504z" fill="#FF6A00" /><path d="M512 192c-170.496 0-309.248 132.096-320 298.496h637.952C819.2 324.096 680.448 192 512 192zM469.504 128c0 23.552 18.944 42.496 42.496 42.496 23.552 0 42.496-18.944 42.496-42.496 0-23.552-18.944-42.496-42.496-42.496-23.552 0-42.496 18.944-42.496 42.496z m-277.504 448h640V640h-640v-64z m42.496-64h554.496v42.496H234.496V512z m0 192h42.496v45.056c-23.552 4.096-42.496 25.6-42.496 51.2 0 29.696 23.552 53.248 53.248 53.248s53.248-23.552 53.248-53.248c0-25.6-19.456-47.104-42.496-51.2v-45.056h426.496v45.056c-23.552 4.096-42.496 25.6-42.496 51.2 0 29.696 23.552 53.248 53.248 53.248s53.248-23.552 53.248-53.248c0-25.6-19.456-47.104-42.496-51.2v-45.056h42.496v-42.496H234.496v42.496z" fill="#FF6A00" /></svg>