<svg class="icon" style="width: 1em; height: 1em;vertical-align: middle;fill: currentColor;overflow: hidden;" viewBox="0 0 1024 1024" version="1.1" xmlns="http://www.w3.org/2000/svg"><path d="M689.152 379.904l55.296-96.256c19.456 2.048 38.4-6.144 49.152-25.6 12.8-23.552 6.656-53.248-19.456-68.096-23.552-12.8-53.248-6.144-68.096 18.944-10.752 16.896-8.704 38.4 2.048 53.248l-53.248 93.696c-27.648-14.848-59.904-25.6-91.648-31.744C509.952 305.152 460.8 256 460.8 256s-31.744 57.344-85.504 91.648c-6.144 2.048-14.848 6.144-21.504 10.752L298.496 264.704c10.752-14.848 12.8-36.352 2.048-53.248-12.8-23.552-42.496-31.744-66.048-19.456s-31.744 45.056-19.456 68.096c10.752 16.896 29.696 25.6 49.152 25.6l55.296 96.256c-68.096 49.152-113.152 128-113.152 215.552 0 134.656 104.448 245.248 243.2 268.8 14.848-12.8 34.304-19.456 55.296-19.456 21.504 0 40.448 6.144 55.296 19.456 136.704-23.552 241.152-134.144 241.152-268.8 1.024-89.6-44.032-166.4-112.128-217.6z m-183.296 328.192c-61.952 0-111.104-49.152-111.104-111.104s49.152-111.104 111.104-111.104 111.104 49.152 111.104 111.104c-0.512 59.904-51.712 111.104-111.104 111.104z m59.392-128c2.048 4.096 2.048 10.752 2.048 14.848 0 34.304-27.648 61.952-61.952 61.952-34.304 0-61.952-27.648-61.952-61.952 0-34.304 27.648-61.952 61.952-61.952h2.048c-4.096 6.656-6.144 12.8-6.144 21.504 0 21.504 16.896 36.352 36.352 36.352 10.752 2.048 21.504-2.048 27.648-10.752z m343.552-78.848l-29.696-8.704c-6.144-66.048-31.744-128-68.096-179.2L783.36 343.04c36.352 53.248 57.344 119.296 57.344 187.904v47.104c0 168.448-125.952 309.248-290.304 332.8-8.704-16.896-25.6-27.648-45.056-27.648-27.648 0-49.152 21.504-49.152 49.152 0 27.648 21.504 49.152 49.152 49.152 21.504 0 38.4-12.8 47.104-31.744 142.848-16.896 260.096-115.2 305.152-247.296l49.152-12.8c23.552-6.144 42.496-29.696 42.496-55.296v-80.896c2.048-22.016-16.896-45.568-40.448-52.224zM132.096 492.544L102.4 501.248c-23.552 6.144-42.496 29.696-42.496 55.296v80.896c0 25.6 19.456 49.152 42.496 55.296l47.104 10.752c10.752 2.048 19.456-4.096 19.456-14.848v-155.648c0-70.656 21.504-134.144 57.344-187.904l-27.648-29.696c-36.352 49.152-59.904 111.104-66.56 177.152z m450.56-210.944c-6.656-2.048-12.8-6.144-14.848-12.8L539.648 128l-31.744 93.696c-2.048 6.144-6.144 10.752-14.848 10.752-6.144 0-12.8-2.048-16.896-6.144l-36.352-49.152-27.648 47.104c0 6.144-6.144 10.752-12.8 10.752H330.752v-34.304h57.344l36.352-61.952c4.096-6.144 8.704-10.752 14.848-10.752s10.752 2.048 14.848 6.144l31.744 42.496 40.448-123.904c2.048-6.144 10.752-12.8 16.896-12.8 8.704 0 14.848 6.656 16.896 12.8l31.744 159.744 23.552-38.4c4.096-2.048 8.704-4.096 14.848-4.096h45.056V204.8H640l-40.448 68.096c-4.096 4.096-8.704 8.704-14.848 8.704h-2.048z" fill="#FF6A00" /></svg>