<svg class="icon" style="width: 1em;height: 1em;vertical-align: middle;fill: currentColor;overflow: hidden;" viewBox="0 0 1024 1024" version="1.1" xmlns="http://www.w3.org/2000/svg"><path d="M864.213333 591.082667l61.226667 28.053333L517.333333 981.333333 106.666667 619.136l61.226666-28.053333 349.44 311.168 346.88-311.168zM440.832 318.144v385.152h-58.666667V318.144h58.666667z m104.576 0v385.152h-58.666667V318.144h58.666667z m102.037333 0v385.152h-58.666666V318.144h58.666666z m107.136 219.370667v114.773333h-58.666666v-114.773333h58.666666z m-415.786666-153.045334v267.818667h-58.666667V384.469333h58.666667z m415.786666 0v114.773334h-58.666666v-114.773334h58.666666zM517.333333 42.666667l408.106667 359.658666-61.226667 30.592L517.333333 121.749333 167.893333 432.917333 106.666667 402.346667 517.333333 42.666667z" fill="#FF6A00" /></svg>