<svg class="icon" style="width: 1em; height: 1em;vertical-align: middle;fill: currentColor;overflow: hidden;" viewBox="0 0 1024 1024" version="1.1" xmlns="http://www.w3.org/2000/svg"><path d="M101 828.6l123.3-123.3v94.4H512c158.9 0 287.7-128.8 287.7-287.7 0-29-4.3-57-12.3-83.4l95-95c26 54 40.6 114.5 40.6 178.4 0 227-184 411-411 411H101v-94.4z m0-333.8V101h411c77.1 0 149.3 21.2 211 58.2l-91.2 91.2c-36.5-16.7-77-26.1-119.8-26.1H224.3v147.2L101 494.8z m401.1 132.3l-0.2 0.2-140-140L101 748.1V574.9l240.1-240 0.1 0.1 21.2-21.2 144.5 144.5 265-264.3c31.9 25.8 60 56.2 83 90.3L506.6 631.6l-4.5-4.5z" fill="#FF6A00" /></svg>