<svg class="icon" style="width: 1em; height: 1em;vertical-align: middle;fill: currentColor;overflow: hidden;" viewBox="0 0 1024 1024" version="1.1" xmlns="http://www.w3.org/2000/svg"><path d="M413.696 719.36l-98.304 56.832-215.04-124.416v205.312l215.04 124.416L496.64 876.544l-82.944-47.616v-109.568z" fill="#FF6A00" /><path d="M751.616 435.2l-43.008-25.088-179.2 103.424-80.384-45.056 81.92-47.104V311.808l-215.04-124.416-215.04 124.416v248.32l41.984 24.064 173.568 100.352L414.72 627.712v-87.552l79.36 44.032V783.36l215.04 124.416 215.04-124.416v-248.32L751.616 435.2z" fill="#FF6A00" /><path d="M610.304 375.808l98.304-56.832 77.312 44.544V166.912l-215.04-124.416-174.08 100.352 212.992 122.88v110.08z" fill="#FF6A00" /></svg>