<svg class="icon" style="width: 1em; height: 1em;vertical-align: middle;fill: currentColor;overflow: hidden;" viewBox="0 0 1024 1024" version="1.1" xmlns="http://www.w3.org/2000/svg"><path d="M981.504 576c0-258.048-210.944-469.504-469.504-469.504S42.496 317.952 42.496 576c0 37.888 5.632 76.288 14.848 111.616 0 11.776 3.072 20.48 8.704 29.184 11.776 17.408 29.184 29.184 52.736 29.184 32.256 0 55.808-23.552 61.44-52.736 49.664 137.728 178.688 234.496 334.336 234.496 140.8 0 264.192-81.92 319.488-202.24 5.632 29.184 29.184 49.664 61.44 49.664 23.552 0 44.032-11.776 55.808-32.256 18.432-49.664 30.208-105.472 30.208-166.912z m-240.64 32.256c-17.408 111.616-114.176 193.536-228.864 193.536-120.32 0-220.16-91.136-228.864-208.384 35.328-11.776 70.144-20.48 108.544-26.624 3.072-64.512 55.808-114.176 120.32-114.176 67.584 0 120.32 52.736 120.32 120.32 37.888 11.776 73.216 23.552 108.544 35.328 0-8.704 3.072-20.48 3.072-32.256 0-129.024-102.912-231.936-231.936-231.936-126.976-0.512-230.912 101.888-231.936 229.376v17.408c-40.96 14.848-79.36 29.184-117.248 49.664v5.632l-3.072-3.072c-3.072-23.552-5.632-44.032-5.632-67.584C153.6 380.416 312.32 221.184 507.904 221.184h1.536c195.584-0.512 354.816 158.208 354.816 353.792v1.536c0 32.256-3.072 64.512-11.776 93.696-35.328-23.552-70.656-44.544-111.616-61.952z m-196.608-44.032H447.488c-5.632 0-11.776 0-17.408 3.072h-5.632c-5.632 0-11.776 0-17.408 3.072h-11.776v5.632c0 67.584 52.736 120.32 120.32 120.32s120.32-52.736 120.32-120.32c-32.768-5.632-59.392-8.704-91.648-11.776z" fill="#FF6A00" /></svg>