<svg class="icon" style="width: 1em; height: 1em;vertical-align: middle;fill: currentColor;overflow: hidden;" viewBox="0 0 1024 1024" version="1.1" xmlns="http://www.w3.org/2000/svg"><path d="M832 618.496h85.504v298.496h-298.496v-85.504h213.504v-212.992z m0-212.992V192h-213.504V106.496h298.496v298.496l-84.992 0.512z m-640 0H106.496V106.496h298.496v85.504H192v213.504z m0 212.992v213.504h213.504v85.504H106.496v-298.496h85.504z m158.72 43.008l-73.216 85.504V320h469.504v341.504H350.72z m-9.216-64h341.504V384H341.504v213.504zM426.496 512c-11.776 0-21.504-9.728-21.504-21.504 0-11.776 9.728-21.504 21.504-21.504 11.776 0 21.504 9.728 21.504 21.504 0 11.776-9.728 21.504-21.504 21.504z m85.504 0c-11.776 0-21.504-9.728-21.504-21.504 0-11.776 9.728-21.504 21.504-21.504 11.776 0 21.504 9.728 21.504 21.504 0 11.776-9.728 21.504-21.504 21.504z m85.504 0c-11.776 0-21.504-9.728-21.504-21.504 0-11.776 9.728-21.504 21.504-21.504 11.776 0 21.504 9.728 21.504 21.504-0.512 11.776-9.728 21.504-21.504 21.504z" fill="#FF6A00" /></svg>