<svg class="icon" style="width: 1em;height: 1em;vertical-align: middle;fill: currentColor;overflow: hidden;" viewBox="0 0 1024 1024" version="1.1" xmlns="http://www.w3.org/2000/svg"><path d="M307.2 900.096v-279.552L106.496 505.856v367.104c0 23.552 21.504 44.544 45.056 44.544H307.2v-17.408z" fill="#FF6A00" /><path d="M872.448 106.496H151.552c-23.552 0-45.056 21.504-45.056 45.056v173.056c4.096 2.048 6.656 2.048 8.704 4.096L369.152 476.16l12.8 6.144 266.752-153.6c23.552-14.848 55.296-6.144 70.656 19.456l27.648 47.104c4.096 6.144 6.144 12.8 6.144 16.896 2.048 19.456-6.144 40.448-25.6 51.2l-264.704 155.648v298.496h409.6c25.6 0 44.544-21.504 44.544-44.544V151.552c0.512-23.552-20.992-45.056-44.544-45.056z" fill="#FF6A00" /></svg>